<svg xmlns="http://www.w3.org/2000/svg" viewBox="0 0 300 420">
  <g fill="#1a1a1a">
    <!-- Battlement merlons -->
    <rect x="98" y="0" width="22" height="32" rx="1"/>
    <rect x="139" y="0" width="22" height="32" rx="1"/>
    <rect x="180" y="0" width="22" height="32" rx="1"/>
    <!-- Battlement base bar -->
    <rect x="86" y="24" width="128" height="20" rx="1"/>
    <!-- Shield body -->
    <path d="M50 40 L250 40 L250 240 Q250 310 150 370 Q50 310 50 240 Z"/>
    <!-- White inner shield (lower area) -->
    <path d="M68 160 L232 160 L232 235 Q232 298 150 350 Q68 298 68 235 Z" fill="white"/>
    <!-- Dark upper chevron -->
    <polygon points="150,210 82,160 88,150 150,196 212,150 218,160"/>
    <!-- Dark lower chevron -->
    <polygon points="150,260 98,215 104,205 150,246 196,205 202,215"/>
    <!-- Dark bottom small chevron -->
    <polygon points="150,305 115,270 121,260 150,286 179,260 185,270"/>
  </g>
</svg>
