<svg xmlns="http://www.w3.org/2000/svg" viewBox="0 0 300 380" fill="none">
  <rect x="95" y="10" width="110" height="60" rx="2" fill="white"/>
  <rect x="85" y="10" width="28" height="35" rx="2" fill="white"/>
  <rect x="187" y="10" width="28" height="35" rx="2" fill="white"/>
  <rect x="113" y="10" width="20" height="20" rx="0" fill="none"/>
  <path d="M60 60 L60 190 Q60 240 150 280 Q240 240 240 190 L240 60 Z" fill="white"/>
  <rect x="113" y="10" width="20" height="25" fill="#1a1a1a"/>
  <rect x="155" y="10" width="20" height="25" fill="#1a1a1a"/>
  <path d="M80 75 L80 185 Q80 225 150 258 Q220 225 220 185 L220 75 Z" fill="#1a1a1a"/>
  <path d="M90 120 L150 165 L210 120 L210 145 L150 190 L90 145 Z" fill="white"/>
  <path d="M105 158 L150 188 L195 158 L195 178 L150 208 L105 178 Z" fill="white"/>
  <text x="150" y="320" font-family="'Arial Black', 'Arial', sans-serif" font-weight="900" font-size="58" text-anchor="middle" fill="white" letter-spacing="2">TORRES</text>
  <text x="150" y="355" font-family="'Arial', sans-serif" font-weight="600" font-size="18" text-anchor="middle" fill="white" letter-spacing="3">VIGILÂNCIA PATRIMONIAL</text>
</svg>
