<svg xmlns="http://www.w3.org/2000/svg" viewBox="0 0 300 440">
  <g fill="white">
    <rect x="120" y="0" width="12" height="28" rx="1"/>
    <rect x="144" y="0" width="12" height="28" rx="1"/>
    <rect x="168" y="0" width="12" height="28" rx="1"/>
    <rect x="108" y="22" width="84" height="14" rx="1"/>
    <rect x="118" y="36" width="8" height="30"/>
    <rect x="138" y="36" width="8" height="30"/>
    <rect x="154" y="36" width="8" height="30"/>
    <rect x="174" y="36" width="8" height="30"/>
    <rect x="112" y="60" width="76" height="10" rx="1"/>
    <path d="M50 80 L250 80 L250 270 Q250 345 150 400 Q50 345 50 270 Z"/>
    <path d="M70 175 L230 175 L230 262 Q230 330 150 380 Q70 330 70 262 Z" fill="#1a1a1a"/>
    <polygon points="150,230 84,178 92,168 150,214 208,168 216,178" fill="white"/>
    <polygon points="150,278 100,235 108,225 150,264 192,225 200,235" fill="white"/>
    <polygon points="150,322 118,290 126,280 150,302 174,280 182,290" fill="white"/>
    <text x="150" y="130" text-anchor="middle" font-family="Inter, Arial, sans-serif" font-size="36" font-weight="800" fill="#1a1a1a" letter-spacing="3">TORRES</text>
    <text x="150" y="155" text-anchor="middle" font-family="Inter, Arial, sans-serif" font-size="11" font-weight="500" fill="#1a1a1a" letter-spacing="4">VIGILÂNCIA PATRIMONIAL</text>
  </g>
</svg>
